<?xml version="1.0" encoding="UTF-8"?>
<!DOCTYPE svg PUBLIC "-//W3C//DTD SVG 1.1//EN" "http://www.w3.org/Graphics/SVG/1.1/DTD/svg11.dtd">
<!-- Creator: CorelDRAW 2019 (64-Bit) -->
<svg xmlns="http://www.w3.org/2000/svg" xml:space="preserve" width="405px" height="240px" version="1.1" style="shape-rendering:geometricPrecision; text-rendering:geometricPrecision; image-rendering:optimizeQuality; fill-rule:evenodd; clip-rule:evenodd"
viewBox="0 0 405 239.86"
 xmlns:xlink="http://www.w3.org/1999/xlink"
 xmlns:xodm="http://www.corel.com/coreldraw/odm/2003">
 <defs>
  <style type="text/css">
   <![CDATA[
    .fil1 {fill:#FEFEFE}
    .fil0 {fill:#E62129}
   ]]>
  </style>
 </defs>
 <g id="Layer_x0020_1">
  <metadata id="CorelCorpID_0Corel-Layer"/>
  <polygon class="fil0" points="87.61,0 317.27,0 317.27,174 87.61,174 "/>
  <path class="fil1" d="M98.43 160.68l61.05 0.02 42.78 -31.34 42.65 31.34 58.97 -0.04 -102.88 -73.78 -0.01 -73.37 -17.72 -0.03 -84.84 147.2zm110.05 -76.7l98.38 70.47 -80.81 -140.97 -17.55 0 -0.02 70.5z"/>
  <path class="fil1" d="M221.81 200.1l43.23 0 0 -11.85 -60.5 0 0.13 51.61 60.37 0 0 -12.04 -43.23 0.01 0 -7.85 43.23 0 0 -12.07 -43.23 0 0 -7.81zm-45.65 39.76l0.08 -39.76 23.75 -0.03 0.09 -11.82 -64.77 0 -0.09 11.87 23.62 -0.01 0.33 39.75 16.99 0zm-122.59 -51.61l29.82 51.61 17.01 0 29.75 -51.61 -17.02 0 -21.23 36.8 -21.24 -36.8 -17.09 0zm-36.31 51.61l21.34 -36.99 21.29 36.99 17.16 0 -29.8 -51.61 -17.36 0 -29.89 51.61 17.26 0zm266 -0.01l55.86 0.01 0 -11.42 -44.58 0.02c-2.16,0 -4.02,-0.77 -5.54,-2.29 -1.53,-1.53 -2.3,-3.39 -2.3,-5.55l0.01 -13.17c0.01,-4.31 3.53,-7.83 7.84,-7.83l44.57 -0.01 0 -11.36 -55.87 0c-7.27,0 -13.2,5.93 -13.2,13.2l0.01 25.21c0,7.27 5.93,13.19 13.2,13.19zm78.59 0.01l0.03 -19.88 26.04 0.09 0.01 19.79 17.07 0 0 -51.61 -16.98 0 -0.08 19.74 -26.15 -0.1 -0.01 -19.64 -17.13 0 0.02 51.61 17.18 0z"/>
 </g>
</svg>
