<?xml version="1.0" encoding="UTF-8"?>
<!DOCTYPE svg PUBLIC "-//W3C//DTD SVG 1.1//EN" "http://www.w3.org/Graphics/SVG/1.1/DTD/svg11.dtd">
<!-- Creator: CorelDRAW 2019 (64-Bit) -->
<svg xmlns="http://www.w3.org/2000/svg" xml:space="preserve" width="354px" height="240px" version="1.1" style="shape-rendering:geometricPrecision; text-rendering:geometricPrecision; image-rendering:optimizeQuality; fill-rule:evenodd; clip-rule:evenodd"
viewBox="0 0 354 240.04"
 xmlns:xlink="http://www.w3.org/1999/xlink"
 xmlns:xodm="http://www.corel.com/coreldraw/odm/2003">
 <defs>
  <style type="text/css">
   <![CDATA[
    .fil2 {fill:black}
    .fil0 {fill:#137015}
    .fil1 {fill:white}
    .fil3 {fill:red;fill-rule:nonzero}
   ]]>
  </style>
 </defs>
 <g id="Layer_x0020_1">
  <metadata id="CorelCorpID_0Corel-Layer"/>
  <rect class="fil0" x="115.14" width="123.54" height="124.66" rx="18.91" ry="19.51"/>
  <rect class="fil1" x="121.03" y="6.51" width="111.78" height="111.63" rx="13.33" ry="13.61"/>
  <rect class="fil0" x="126.27" y="11.75" width="101.28" height="101.15" rx="8.26" ry="8.43"/>
  <path class="fil1" d="M195.21 42.9c-3.7,-10.37 -9.04,-18.44 -17.51,-22.1 1.34,15.04 -8.46,18.46 -16.76,23.07 3.09,0.62 6.6,-0.31 8.76,0.26 -4.62,7.64 -12.55,12.13 -20.46,16.64 6.74,0.39 13.47,0.34 20.21,-1.68 -0.73,7.24 -11.27,16.13 -24.56,23.09 3.84,3.87 17.01,-0.52 25.51,-0.78 -1.27,8.42 -0.92,16.09 1.22,22.96 3.43,0 6.86,0 10.29,0 -3.06,-5.04 -4.85,-17.73 -4.15,-22.51 1.02,-4.07 6.92,-4.93 12.59,-3.22 6.22,2.05 12.22,5.24 18.1,9.09 -1.83,-11.88 -17.23,-30.02 -17.33,-31.31 3.63,1.57 7.19,5.37 9.98,8.68 -1.11,-7.53 -4.78,-15.52 -9.98,-23.04 1.41,0.13 2.82,0.34 4.09,0.85z"/>
  <path class="fil2" d="M70.73 143.93l15.7 0c27.7,0 28.56,54.85 -0.46,54.85l-14.78 0c-29.02,0 -28.16,-54.85 -0.46,-54.85zm3.19 11.24c-10.7,-0.04 -11.29,9.84 -11.22,16.55 0,6.72 0.74,14.35 11.07,15.82l9.62 0c10.33,-1.47 11.07,-9.1 11.07,-15.82 0.07,-6.71 -0.52,-16.59 -11.22,-16.55l-9.32 0z"/>
  <path class="fil2" d="M111.36 154.11l0 44.68 11.5 0 0 -40.06c0,-5.6 4.21,-4.74 5.43,-1l10.39 31.7c1.83,5.59 6.67,9.36 12.55,9.36l4.6 0c4.18,0 9.85,-4.9 9.85,-10.91l0 -43.95 -11.5 0 0 41.58c0,2.85 -4.25,3.05 -5.01,0.4l-8.32 -29.13c-1.73,-6.07 -7.39,-13.43 -13.7,-13.43l-4.46 0c-5.6,0 -11.33,5.15 -11.33,10.76z"/>
  <polygon class="fil2" points="221.94,143.93 233.32,143.93 233.32,198.81 221.94,198.81 "/>
  <path class="fil2" d="M216.35 143.93l0 11.69 -28.34 0c-5.93,0.34 -7.37,9.34 -0.01,10.18l18.31 0c16.79,0 17.79,32.98 -2.02,32.98l-30.03 0 0 -11.4 27.93 0c6.43,0.01 7.04,-10.36 0.13,-10.36l-16.24 0.03c-19.87,0.03 -20.6,-33.24 1.83,-33.19l28.44 0.07z"/>
  <path class="fil2" d="M321.79 143.93l0.02 0 4.79 0 0.01 0c4.12,0 8.6,3.43 9.96,7.64l15.36 47.22 -12.28 0 -14.2 -41.84c-0.78,-1.53 -2.07,-1.62 -2.8,-0.02l-13.9 41.86 -12.27 0 15.35 -47.22c1.37,-4.21 5.85,-7.64 9.96,-7.64z"/>
  <path class="fil2" d="M21.04 143.93l26.39 0 0 11.24 -23.2 0c-10.71,-0.04 -11.29,9.84 -11.22,16.55 0,6.5 0.69,13.87 10.11,15.66 0.31,0.06 0.63,0.11 0.95,0.16l23.36 0 0 11.24 -25.93 0c-0.91,0 -1.79,-0.05 -2.63,-0.15 -0.63,-0.08 -1.24,-0.19 -1.84,-0.33 -24.38,-5.33 -22.19,-54.37 4.01,-54.37z"/>
  <polygon class="fil3" points="328.67,233.67 328.67,211.94 332.99,211.94 332.99,233.67 "/>
  <path class="fil3" d="M306.54 217.92l4.61 0 3.93 11.17 3.84 -11.17 4.48 0 -5.78 15.15 -1.04 2.74c-0.38,0.91 -0.74,1.61 -1.09,2.1 -0.34,0.48 -0.75,0.87 -1.19,1.17 -0.45,0.3 -1,0.54 -1.66,0.7 -0.65,0.17 -1.4,0.26 -2.22,0.26 -0.83,0 -1.65,-0.09 -2.46,-0.26l-0.38 -3.24c0.68,0.12 1.29,0.19 1.84,0.19 1.01,0 1.76,-0.28 2.25,-0.85 0.48,-0.58 0.85,-1.3 1.11,-2.18l-6.24 -15.78z"/>
  <path class="fil3" d="M302.73 217.92l0 3.31 -2.97 0 0 6.37c0,1.3 0.02,2.05 0.08,2.26 0.06,0.22 0.19,0.39 0.39,0.53 0.2,0.14 0.44,0.21 0.73,0.21 0.41,0 0.99,-0.13 1.75,-0.4l0.36 3.24c-1,0.41 -2.14,0.62 -3.41,0.62 -0.78,0 -1.48,-0.13 -2.11,-0.38 -0.62,-0.25 -1.08,-0.58 -1.37,-0.98 -0.3,-0.4 -0.5,-0.95 -0.61,-1.63 -0.09,-0.49 -0.14,-1.47 -0.14,-2.95l0 -6.89 -1.99 0 0 -3.31 1.99 0 0 -3.12 4.33 -2.46 0 5.58 2.97 0z"/>
  <path class="fil3" d="M273.65 229.24l4.36 -0.64c0.18,0.8 0.56,1.42 1.13,1.83 0.56,0.42 1.35,0.63 2.37,0.63 1.12,0 1.97,-0.2 2.53,-0.6 0.38,-0.27 0.57,-0.65 0.57,-1.11 0,-0.32 -0.1,-0.58 -0.31,-0.79 -0.22,-0.19 -0.7,-0.38 -1.45,-0.55 -3.5,-0.74 -5.71,-1.42 -6.65,-2.03 -1.3,-0.85 -1.95,-2.04 -1.95,-3.55 0,-1.37 0.56,-2.52 1.69,-3.45 1.12,-0.93 2.85,-1.39 5.21,-1.39 2.24,0 3.91,0.35 5,1.05 1.09,0.71 1.84,1.75 2.25,3.13l-4.07 0.73c-0.18,-0.61 -0.51,-1.09 -1,-1.42 -0.49,-0.33 -1.19,-0.49 -2.1,-0.49 -1.15,0 -1.97,0.15 -2.47,0.46 -0.33,0.22 -0.5,0.5 -0.5,0.84 0,0.3 0.14,0.56 0.43,0.76 0.4,0.28 1.75,0.67 4.07,1.18 2.31,0.5 3.93,1.12 4.85,1.85 0.91,0.74 1.36,1.78 1.36,3.1 0,1.44 -0.63,2.69 -1.88,3.72 -1.26,1.04 -3.12,1.56 -5.58,1.56 -2.23,0 -4,-0.43 -5.31,-1.3 -1.3,-0.86 -2.15,-2.04 -2.55,-3.52z"/>
  <path class="fil3" d="M264.7 228.69l4.21 0.7c-0.54,1.52 -1.4,2.68 -2.56,3.48 -1.16,0.79 -2.62,1.19 -4.36,1.19 -2.77,0 -4.82,-0.89 -6.15,-2.68 -1.05,-1.44 -1.57,-3.25 -1.57,-5.44 0,-2.61 0.69,-4.66 2.06,-6.13 1.38,-1.49 3.12,-2.22 5.23,-2.22 2.36,0 4.23,0.77 5.6,2.32 1.37,1.55 2.02,3.92 1.96,7.11l-10.53 0c0.03,1.24 0.37,2.2 1.02,2.88 0.65,0.69 1.45,1.04 2.42,1.04 0.66,0 1.21,-0.18 1.65,-0.54 0.45,-0.35 0.79,-0.92 1.02,-1.71zm0.25 -4.22c-0.03,-1.21 -0.35,-2.13 -0.94,-2.75 -0.6,-0.63 -1.33,-0.95 -2.19,-0.95 -0.91,0 -1.67,0.34 -2.27,1 -0.6,0.66 -0.89,1.57 -0.88,2.7l6.28 0z"/>
  <path class="fil3" d="M240.25 217.92l2.4 0 0 -1.19c0,-1.32 0.15,-2.31 0.44,-2.97 0.3,-0.65 0.84,-1.18 1.63,-1.59 0.8,-0.41 1.8,-0.62 3.01,-0.62 1.23,0 2.45,0.18 3.64,0.53l-0.55 2.89c-0.71,-0.15 -1.39,-0.24 -2.04,-0.24 -0.64,0 -1.1,0.15 -1.38,0.43 -0.28,0.28 -0.42,0.83 -0.42,1.64l0 1.12 3.25 0 0 3.28 -3.25 0 0 12.47 -4.33 0 0 -12.47 -2.4 0 0 -3.28z"/>
  <polygon class="fil3" points="230.4,233.67 230.4,217.92 234.73,217.92 234.73,233.67 "/>
  <polygon class="fil3" points="230.4,215.8 230.4,211.94 234.73,211.94 234.73,215.8 "/>
  <polygon class="fil3" points="218.86,233.67 218.86,211.94 223.19,211.94 223.19,233.67 "/>
  <path class="fil3" d="M199.65 233.67l-4.32 0 0 -15.75 4.01 0 0 2.24c0.69,-1.06 1.31,-1.75 1.86,-2.08 0.55,-0.33 1.18,-0.49 1.88,-0.49 0.99,0 1.94,0.26 2.86,0.78l-1.34 3.63c-0.73,-0.45 -1.41,-0.68 -2.04,-0.68 -0.61,0 -1.13,0.16 -1.55,0.48 -0.42,0.32 -0.75,0.9 -0.99,1.74 -0.24,0.84 -0.37,2.6 -0.37,5.27l0 4.86z"/>
  <path class="fil3" d="M145.83 233.67l-4.01 0 0 -2.31c-0.67,0.9 -1.47,1.57 -2.38,2.02 -0.91,0.45 -1.83,0.68 -2.76,0.68 -1.89,0 -3.5,-0.73 -4.85,-2.19 -1.34,-1.46 -2.02,-3.49 -2.02,-6.11 0,-2.67 0.66,-4.7 1.97,-6.09 1.31,-1.39 2.96,-2.08 4.96,-2.08 1.83,0 3.42,0.73 4.76,2.19l0 -7.84 4.33 0 0 21.73zm-11.56 -8.18c0,1.68 0.24,2.9 0.72,3.66 0.7,1.09 1.67,1.63 2.93,1.63 0.99,0 1.84,-0.41 2.53,-1.22 0.7,-0.82 1.05,-2.04 1.05,-3.67 0,-1.82 -0.34,-3.12 -1.02,-3.92 -0.68,-0.8 -1.54,-1.2 -2.6,-1.2 -1.02,0 -1.88,0.4 -2.58,1.18 -0.68,0.79 -1.03,1.97 -1.03,3.54z"/>
  <path class="fil3" d="M125.48 217.92l0 3.31 -2.97 0 0 6.37c0,1.3 0.03,2.05 0.08,2.26 0.06,0.22 0.19,0.39 0.39,0.53 0.21,0.14 0.45,0.21 0.74,0.21 0.4,0 0.98,-0.13 1.74,-0.4l0.37 3.24c-1.01,0.41 -2.14,0.62 -3.42,0.62 -0.78,0 -1.48,-0.13 -2.1,-0.38 -0.63,-0.25 -1.09,-0.58 -1.38,-0.98 -0.29,-0.4 -0.49,-0.95 -0.61,-1.63 -0.09,-0.49 -0.14,-1.47 -0.14,-2.95l0 -6.89 -1.99 0 0 -3.31 1.99 0 0 -3.12 4.33 -2.46 0 5.58 2.97 0z"/>
  <path class="fil3" d="M106.26 233.67l0 -2.36c-0.54,0.84 -1.25,1.51 -2.14,2.01 -0.89,0.49 -1.82,0.74 -2.8,0.74 -1.01,0 -1.9,-0.23 -2.7,-0.7 -0.8,-0.46 -1.37,-1.12 -1.73,-1.96 -0.36,-0.84 -0.53,-2.01 -0.53,-3.49l0 -9.99 3.93 0 0 7.25c0,2.22 0.07,3.58 0.22,4.08 0.14,0.5 0.41,0.9 0.8,1.19 0.38,0.29 0.87,0.43 1.46,0.43 0.68,0 1.28,-0.19 1.81,-0.58 0.54,-0.39 0.9,-0.88 1.1,-1.46 0.2,-0.58 0.3,-2 0.3,-4.25l0 -6.66 3.93 0 0 15.75 -3.65 0z"/>
  <path class="fil3" d="M73.83 225.6c0,-1.38 0.34,-2.72 1,-4.02 0.67,-1.3 1.62,-2.28 2.84,-2.97 1.22,-0.68 2.58,-1.02 4.09,-1.02 2.33,0 4.24,0.77 5.73,2.32 1.49,1.55 2.23,3.5 2.23,5.87 0,2.38 -0.75,4.36 -2.25,5.93 -1.51,1.57 -3.4,2.35 -5.68,2.35 -1.41,0 -2.76,-0.33 -4.04,-0.98 -1.27,-0.65 -2.25,-1.61 -2.92,-2.87 -0.66,-1.26 -1,-2.8 -1,-4.61zm4.19 0.22c0,1.57 0.36,2.76 1.08,3.59 0.73,0.84 1.62,1.25 2.69,1.25 1.06,0 1.95,-0.41 2.66,-1.25 0.72,-0.83 1.08,-2.03 1.08,-3.62 0,-1.54 -0.36,-2.73 -1.08,-3.56 -0.71,-0.83 -1.6,-1.24 -2.66,-1.24 -1.07,0 -1.96,0.41 -2.69,1.24 -0.72,0.83 -1.08,2.03 -1.08,3.59z"/>
  <path class="fil3" d="M55.7 228.69l4.32 0.7c-0.55,1.52 -1.43,2.68 -2.62,3.48 -1.2,0.79 -2.7,1.19 -4.5,1.19 -2.85,0 -4.96,-0.89 -6.32,-2.68 -1.08,-1.44 -1.62,-3.25 -1.62,-5.44 0,-2.61 0.71,-4.66 2.13,-6.13 1.41,-1.49 3.21,-2.22 5.38,-2.22 2.43,0 4.35,0.77 5.76,2.32 1.41,1.55 2.08,3.92 2.02,7.11l-10.84 0c0.03,1.24 0.38,2.2 1.05,2.88 0.66,0.69 1.5,1.04 2.49,1.04 0.67,0 1.24,-0.18 1.7,-0.54 0.46,-0.35 0.81,-0.92 1.05,-1.71zm0.25 -4.22c-0.03,-1.21 -0.35,-2.13 -0.97,-2.75 -0.61,-0.63 -1.36,-0.95 -2.25,-0.95 -0.94,0 -1.72,0.34 -2.33,1 -0.62,0.66 -0.92,1.57 -0.91,2.7l6.46 0z"/>
  <path class="fil3" d="M28.91 211.94l0 8.05c1.41,-1.6 3.09,-2.4 5.04,-2.4 1.01,0 1.92,0.17 2.72,0.53 0.81,0.36 1.41,0.81 1.82,1.36 0.41,0.55 0.69,1.17 0.84,1.84 0.15,0.67 0.23,1.71 0.23,3.12l0 9.23 -4.33 0 0 -8.31c0,-1.64 -0.09,-2.69 -0.25,-3.14 -0.17,-0.44 -0.46,-0.8 -0.88,-1.05 -0.42,-0.27 -0.95,-0.4 -1.59,-0.4 -0.72,0 -1.37,0.17 -1.95,0.51 -0.57,0.33 -0.99,0.84 -1.25,1.51 -0.27,0.68 -0.4,1.68 -0.4,3l0 7.88 -4.33 0 0 -21.73 4.33 0z"/>
  <polygon class="fil3" points="8.19,233.67 8.19,215.61 1.49,215.61 1.49,211.94 19.43,211.94 19.43,215.61 12.77,215.61 12.77,233.67 "/>
  <path class="fil3" d="M151.73 225.6c0,-1.38 0.33,-2.72 1,-4.02 0.67,-1.3 1.61,-2.28 2.84,-2.97 1.22,-0.68 2.58,-1.02 4.09,-1.02 2.33,0 4.23,0.77 5.72,2.32 1.49,1.55 2.23,3.5 2.23,5.87 0,2.38 -0.75,4.36 -2.25,5.93 -1.5,1.57 -3.39,2.35 -5.67,2.35 -1.41,0 -2.76,-0.33 -4.04,-0.98 -1.28,-0.65 -2.25,-1.61 -2.92,-2.87 -0.67,-1.26 -1,-2.8 -1,-4.61zm4.19 0.22c0,1.57 0.36,2.76 1.08,3.59 0.73,0.84 1.62,1.25 2.68,1.25 1.06,0 1.95,-0.41 2.67,-1.25 0.72,-0.83 1.08,-2.03 1.08,-3.62 0,-1.54 -0.36,-2.73 -1.08,-3.56 -0.72,-0.83 -1.61,-1.24 -2.67,-1.24 -1.06,0 -1.95,0.41 -2.68,1.24 -0.72,0.83 -1.08,2.03 -1.08,3.59z"/>
  <path class="fil3" d="M173.01 225.6c0,-1.38 0.33,-2.72 1,-4.02 0.66,-1.3 1.61,-2.28 2.83,-2.97 1.22,-0.68 2.58,-1.02 4.09,-1.02 2.33,0 4.24,0.77 5.73,2.32 1.49,1.55 2.23,3.5 2.23,5.87 0,2.38 -0.75,4.36 -2.25,5.93 -1.51,1.57 -3.4,2.35 -5.68,2.35 -1.41,0 -2.75,-0.33 -4.04,-0.98 -1.27,-0.65 -2.25,-1.61 -2.91,-2.87 -0.67,-1.26 -1,-2.8 -1,-4.61zm4.18 0.22c0,1.57 0.36,2.76 1.09,3.59 0.72,0.84 1.61,1.25 2.68,1.25 1.06,0 1.95,-0.41 2.66,-1.25 0.72,-0.83 1.08,-2.03 1.08,-3.62 0,-1.54 -0.36,-2.73 -1.08,-3.56 -0.71,-0.83 -1.6,-1.24 -2.66,-1.24 -1.07,0 -1.96,0.41 -2.68,1.24 -0.73,0.83 -1.09,2.03 -1.09,3.59z"/>
  <path class="fil3" d="M349.58 228.69l4.21 0.7c-0.54,1.52 -1.4,2.68 -2.56,3.48 -1.16,0.79 -2.62,1.19 -4.36,1.19 -2.77,0 -4.82,-0.89 -6.15,-2.68 -1.05,-1.44 -1.57,-3.25 -1.57,-5.44 0,-2.61 0.69,-4.66 2.06,-6.13 1.38,-1.49 3.12,-2.22 5.23,-2.22 2.36,0 4.23,0.77 5.6,2.32 1.37,1.55 2.02,3.92 1.96,7.11l-10.53 0c0.04,1.24 0.37,2.2 1.02,2.88 0.65,0.69 1.46,1.04 2.42,1.04 0.66,0 1.21,-0.18 1.65,-0.54 0.45,-0.35 0.79,-0.92 1.02,-1.71zm0.25 -4.22c-0.03,-1.21 -0.35,-2.13 -0.94,-2.75 -0.6,-0.63 -1.33,-0.95 -2.19,-0.95 -0.91,0 -1.67,0.34 -2.27,1 -0.6,0.66 -0.89,1.57 -0.88,2.7l6.28 0z"/>
  <path class="fil2" d="M239.02 154.11l0 44.68 11.51 0 0 -40.06c0,-5.6 4.2,-4.74 5.43,-1l10.39 31.7c1.83,5.59 6.66,9.36 12.54,9.36l4.61 0c4.18,0 9.85,-4.9 9.85,-10.91l0 -43.95 -11.5 0 0 41.58c0,2.85 -4.25,3.05 -5.01,0.4l-8.32 -29.13c-1.73,-6.07 -7.4,-13.43 -13.7,-13.43l-4.46 0c-5.61,0 -11.34,5.15 -11.34,10.76z"/>
 </g>
</svg>
