<?xml version="1.0" encoding="UTF-8"?>
<!DOCTYPE svg PUBLIC "-//W3C//DTD SVG 1.1//EN" "http://www.w3.org/Graphics/SVG/1.1/DTD/svg11.dtd">
<!-- Creator: CorelDRAW 2019 (64-Bit) -->
<svg xmlns="http://www.w3.org/2000/svg" xml:space="preserve" width="266px" height="240px" version="1.1" style="shape-rendering:geometricPrecision; text-rendering:geometricPrecision; image-rendering:optimizeQuality; fill-rule:evenodd; clip-rule:evenodd"
viewBox="0 0 266 240.27"
 xmlns:xlink="http://www.w3.org/1999/xlink"
 xmlns:xodm="http://www.corel.com/coreldraw/odm/2003">
 <defs>
  <style type="text/css">
   <![CDATA[
    .fil0 {fill:#1D4F77}
    .fil1 {fill:#FEFEFE;fill-rule:nonzero}
   ]]>
  </style>
 </defs>
 <g id="Layer_x0020_1">
  <metadata id="CorelCorpID_0Corel-Layer"/>
  <path class="fil0" d="M0 194.94c0,12.53 3.19,20.72 14.19,26.88 42.68,20.68 215.32,30.77 246.13,-6.86 8.37,-10.23 5.68,-26.35 3.28,-38.35 -10,-50.01 -44.23,-135.86 -87.52,-167.56 -18.61,-12.42 -68.64,-11.7 -86.11,-0.04 -42.16,28.12 -89.97,140.05 -89.97,185.93z"/>
  <path class="fil1" d="M148.28 53.63c0.06,-4.41 3.64,-7.96 8.06,-7.96 4.42,0 8.04,3.52 8.09,7.93l0.02 51.85c-0.06,17.31 -14.25,31.1 -31.57,31.1 -17.36,0 -31.43,-14.07 -31.43,-31.43 0,-17.36 14.1,-31.65 31.43,-31.43 0.79,0.01 2.02,0.09 2.02,0.09 4.46,0 7.93,3.65 7.93,8.1 0,4.46 -3.62,7.91 -8.07,7.91 0,0 -1.37,-0.04 -1.88,-0.04 -8.48,0 -15.36,6.88 -15.36,15.37 0,8.48 6.88,15.37 15.36,15.37 8.49,0 15.36,-6.9 15.37,-15.37l0.03 -51.49zm-13.49 34.04c3.25,-0.01 5.93,-2.49 5.93,-5.79 0,-3.26 -2.51,-5.98 -5.82,-5.98l-0.06 0 -0.07 -0.01c-0.64,-0.04 -1.28,-0.08 -1.91,-0.09 -16.22,-0.2 -29.29,13.2 -29.29,29.32 0,16.19 13.12,29.31 29.31,29.31 16.08,0 29.46,-12.77 29.46,-28.98l-0.02 -51.82c-0.04,-3.27 -2.74,-5.84 -5.98,-5.84 -3.25,0 -5.9,2.61 -5.94,5.84l-0.04 51.49c0,9.65 -7.83,17.48 -17.48,17.48 -9.65,0 -17.48,-7.83 -17.48,-17.48 0,-9.66 7.83,-17.48 17.48,-17.48 0.64,0 1.27,0.02 1.91,0.03z"/>
  <path class="fil1" d="M127.14 38.06c0.06,-4.41 3.65,-7.96 8.06,-7.96 4.42,0 8.04,3.53 8.1,7.93l0.02 51.86c-0.06,17.3 -14.25,31.1 -31.57,31.1 -17.36,0 -31.43,-14.08 -31.43,-31.44 0,-17.36 14.09,-31.65 31.43,-31.43 0.78,0.01 2.02,0.1 2.02,0.1 4.46,0 7.93,3.64 7.93,8.1 0,4.46 -3.62,7.9 -8.07,7.9 0,0 -1.37,-0.03 -1.88,-0.03 -8.49,0 -15.37,6.88 -15.37,15.36 0,8.49 6.88,15.37 15.37,15.37 8.48,0 15.36,-6.89 15.36,-15.37l0.03 -51.49z"/>
  <path class="fil1" d="M65.39 154.6c0.03,-2.37 1.96,-4.28 4.33,-4.28 2.38,0 4.32,1.9 4.35,4.27l0.01 27.87c-0.03,9.3 -7.66,16.72 -16.97,16.72 -9.33,0 -16.89,-7.57 -16.89,-16.9 0,-9.33 7.57,-17.02 16.89,-16.89 0.43,0 1.09,0.04 1.09,0.04 2.39,0 4.26,1.96 4.26,4.36 0,2.4 -1.94,4.25 -4.34,4.25 0,0 -0.73,-0.02 -1.01,-0.02 -4.56,0 -8.26,3.7 -8.26,8.26 0,4.56 3.7,8.26 8.26,8.26 4.56,0 8.26,-3.7 8.26,-8.26l0.02 -27.68zm144.66 40.2c0,2.41 -1.98,4.37 -4.4,4.37 -2.41,0 -4.37,-1.96 -4.37,-4.37l0 -12.36c0,-9.3 7.56,-16.87 16.88,-16.87 3.52,0 7.28,1.25 9.49,2.93 1.09,0.83 1.83,2.11 1.83,3.58 0,2.42 -1.96,4.38 -4.38,4.38 -1,0 -2.07,-0.58 -2.7,-0.92 -1.27,-0.69 -2.69,-1.21 -4.24,-1.21 -4.49,0 -8.11,3.64 -8.11,8.11l0 12.36zm-57.63 -22.7l0 11.69c0,4.46 4.24,6.42 9.47,6.42 0.13,0 0.26,0 0.39,0 2.45,0 4.45,1.96 4.45,4.41 0,2.41 -1.93,4.38 -4.34,4.44 -0.25,0.01 -0.5,0.01 -0.75,0.01 -9.89,0 -17.71,-4.1 -17.91,-12.65l-0.01 -0.42 0.06 -31.35c0,-2.38 1.95,-4.31 4.33,-4.31 2.39,0.01 4.31,1.97 4.31,4.36l0 8.7 9.96 0c2.39,0.01 4.32,1.96 4.32,4.35 0,2.39 -1.93,4.34 -4.32,4.35l-9.96 0zm42.52 13.7l-12.02 0c-2.37,0 -4.32,-1.92 -4.32,-4.29 0,-2.37 1.92,-4.3 4.31,-4.3l4.53 0.01c0,0 0.01,0 0.03,0 0.31,0 0.52,-0.21 0.62,-0.5 0.13,-0.4 -0.37,-0.83 -0.51,-0.94 -1.34,-1.05 -2.89,-1.61 -4.86,-1.61 -4.31,0 -7.8,3.49 -7.8,7.79 0,4.31 3.49,7.81 7.8,7.81 1.58,0 3.06,-0.48 4.3,-1.29 0.68,-0.43 1.48,-0.65 2.34,-0.65 2.49,0 4.5,2.01 4.5,4.49 0,1.67 -0.95,3.12 -2.25,3.96l-0.07 0.04c-2.57,1.58 -5.59,2.49 -8.82,2.49 -9.31,0 -16.85,-7.54 -16.85,-16.85 0,-9.3 7.54,-16.84 16.85,-16.84 9.06,0 16.45,7.15 16.83,16.13l0 -0.04 0 0.08c0,2.48 -2.01,4.49 -4.5,4.49l-0.11 0.02zm-83.27 -1.62l0.01 -14.54c0,-2.38 1.96,-4.28 4.34,-4.28 2.37,0 4.34,1.88 4.34,4.26l0.02 14.11c0,0.04 0,0.08 0,0.1 0,3.45 2.82,6.24 6.27,6.24 3.44,0 6.19,-2.79 6.25,-6.24l0 -0.06 0.02 -14.13c0,-2.38 1.96,-4.28 4.33,-4.28 2.38,0 4.35,1.88 4.35,4.26l0.01 14.49c0,8.28 -6.74,15.04 -15.01,15.04 -8.27,0 -14.93,-6.7 -14.93,-14.97zm-6.52 1.62l-12.01 0c-2.38,0 -4.32,-1.92 -4.32,-4.29 0,-2.37 1.92,-4.3 4.3,-4.3l4.53 0.01c0,0 0.02,0 0.03,0 0.31,0 0.53,-0.21 0.62,-0.5 0.13,-0.4 -0.36,-0.83 -0.51,-0.94 -1.33,-1.05 -2.88,-1.61 -4.86,-1.61 -4.31,0 -7.8,3.49 -7.8,7.79 0,4.31 3.49,7.81 7.8,7.81 1.59,0 3.06,-0.48 4.3,-1.29 0.69,-0.43 1.49,-0.65 2.35,-0.65 2.48,0 4.49,2.01 4.49,4.49 0,1.67 -0.95,3.12 -2.25,3.96l-0.07 0.04c-2.56,1.58 -5.59,2.49 -8.82,2.49 -9.31,0 -16.85,-7.54 -16.85,-16.85 0,-9.3 7.54,-16.84 16.85,-16.84 9.06,0 16.46,7.15 16.83,16.13l0 -0.04 0 0.08c0,2.48 -2.01,4.49 -4.49,4.49l-0.12 0.02z"/>
 </g>
</svg>
