<?xml version="1.0" encoding="UTF-8"?>
<!DOCTYPE svg PUBLIC "-//W3C//DTD SVG 1.1//EN" "http://www.w3.org/Graphics/SVG/1.1/DTD/svg11.dtd">
<!-- Creator: CorelDRAW 2019 (64-Bit) -->
<svg xmlns="http://www.w3.org/2000/svg" xml:space="preserve" width="657px" height="240px" version="1.1" style="shape-rendering:geometricPrecision; text-rendering:geometricPrecision; image-rendering:optimizeQuality; fill-rule:evenodd; clip-rule:evenodd"
viewBox="0 0 657 240.04"
 xmlns:xlink="http://www.w3.org/1999/xlink"
 xmlns:xodm="http://www.corel.com/coreldraw/odm/2003">
 <defs>
  <style type="text/css">
   <![CDATA[
    .fil0 {fill:#D2232A}
   ]]>
  </style>
 </defs>
 <g id="Layer_x0020_1">
  <metadata id="CorelCorpID_0Corel-Layer"/>
  <path class="fil0" d="M25.72 104.44c5.84,1.36 12.98,6.49 16.06,11.54 -4.95,-1.06 -11.43,-2.72 -20.17,-2.28 1.01,-4.34 1.69,-6.14 4.11,-9.26zm74.61 -89.52c-29.53,-0.75 -56.96,7.99 -68.84,16.5 15.06,-5.94 36.98,-8.15 56.41,-0.55l-5.58 7.2c-19.27,-8.2 -44.02,-5.03 -56.3,3.86l-22.42 -30.69 -2.2 35.44c-0.93,6.83 -1.4,29.15 -1.4,37.7 0,11.63 1.59,23.88 5.14,31.9 5.48,12.37 17.06,14.89 25.71,29.86 9.94,17.2 6.14,36.09 19.97,35.77 3.76,-0.09 7.07,-0.44 9.26,-3.66 4.07,-5.96 3.63,-14.21 10.74,-27.18 3.3,-6.01 8.26,-12.32 13.43,-17.43 17.33,-17.16 32.54,-22.81 32.54,-52.83 0,-12.17 -2.56,-21.26 -5.15,-32.96 15.37,15.97 18.92,45.3 8.1,62.99 -8.62,14.07 -23.07,23.25 -34.45,36.19 -6.85,7.78 -10.52,19.88 -13.84,29.89 -10.1,30.4 -36.01,30.87 -57.96,22.16 2.6,4.78 15.31,16.12 18.26,18.26 14.64,10.6 30.92,17.89 49.02,20.87 21.02,3.46 41.51,2.15 61.69,-5.2 13.36,-4.88 28,-13.66 38,-23.74 18.16,-18.33 28.98,-39.37 32.63,-65.12 4.27,-30.2 -2.62,-61.23 -19.86,-83.74 -21.03,-27.46 -46.5,-39.65 -80.28,-44.23l-1.31 -16.18 -11.31 14.92z"/>
  <path class="fil0" d="M569.54 144.57l0 76.14c0,10.17 15.85,19.98 26.63,9.15 2.84,-2.86 4.79,-5.58 4.77,-11.18 -0.03,-10.64 -0.02,-21.28 -0.02,-31.92 1.24,0.91 3.51,4.68 4.53,6.27l22.11 33.45c1.56,2.36 2.97,3.85 5.46,5.35 12.1,7.27 23.98,-2.06 23.98,-12.66l0 -74.08c0,-6.54 -4.72,-12.01 -9.31,-13.84 -6.69,-2.66 -13,-1.12 -17.33,3.14 -5.49,5.4 -4.74,8.73 -4.74,18.93 0,7.89 0,15.78 0,23.66l-18.01 -26.24c-6.07,-9.1 -12.06,-21.91 -22.94,-20.89 -5.41,0.51 -8.02,1.93 -10.97,4.99l-1.22 1.36c-1.84,2.23 -2.94,4.98 -2.94,8.37zm-183.45 -19.59c3.63,0 6.57,2.94 6.57,6.57 0,3.62 -2.94,6.56 -6.57,6.56 -3.63,0 -6.57,-2.94 -6.57,-6.56 0,-3.63 2.94,-6.57 6.57,-6.57zm-47.72 0c3.62,0 6.56,2.94 6.56,6.57 0,3.62 -2.94,6.56 -6.56,6.56 -3.63,0 -6.57,-2.94 -6.57,-6.56 0,-3.63 2.94,-6.57 6.57,-6.57zm103.06 109.63c10.74,0 16.35,-5.46 20,-14.48 3.37,-8.32 6.5,-16.24 9.91,-24.56 3.29,-8.03 6.66,-16.12 10,-24.47 5.16,-12.9 14.06,-26.81 4.74,-36.19 -6.17,-6.21 -15.24,-6.58 -21.3,-1.97 -3.39,2.58 -4.37,5.19 -6.01,9.42l-16.83 43.88 -13.23 -34.61c-1.64,-4.09 -2.8,-7.87 -4.54,-11.92 -6.07,-14.08 -24.19,-11.89 -28.84,-1.11 -1.74,4.03 -2.24,8.99 -0.52,13.49l18.62 45.69c3.32,7.89 5.96,15.28 9.33,23.09 2.45,5.68 5.72,10.51 11.78,12.39 1.28,0.4 5.68,1.35 6.89,1.35zm-79.75 -62.26l1.03 0c1.45,6.23 6.02,15.49 7.21,20.58l-14.92 0 4.94 -15.12c0.74,-2.11 1.55,-3.13 1.74,-5.46zm-48.36 44.76c0,5.3 0.56,10.31 5.64,13.91 2.57,1.82 7.5,4.15 12.08,3.33 14.93,-2.67 12.14,-16.21 15.72,-16.21l30.87 0c3.8,0 1.27,14.68 17.12,16.36 1.68,0.18 5.48,-0.56 6.88,-1.11 1.86,-0.73 3.65,-2 4.96,-3.27 8.68,-8.36 4.05,-16.97 0.74,-24.7l-15.31 -36.14c-3.76,-8.58 -10.66,-28.57 -16.56,-34.37 -6.99,-6.88 -19.55,-6.9 -26.59,0.45 -5.41,5.64 -11.76,23.94 -15.66,32.7 -3.63,8.16 -6.87,15.86 -10.33,24.14 -1.98,4.72 -9.56,20.08 -9.56,24.91zm179.56 -71l0 71.52c0,9.48 6.73,16.98 15.95,16.98l42.7 0c13.59,0 20.14,-17.29 9.91,-26.38 -3.04,-2.71 -6.9,-3.98 -12.48,-3.98l-24.18 0 0 -9.26 21.61 0c7.28,0 13.37,-6.09 13.37,-13.38 0,-6.3 -6.12,-12.86 -12.35,-12.86l-22.63 0 0 -8.23 22.12 0c28.07,0 21.93,-30.36 6.17,-30.36l-45.27 0c-8.33,0 -14.92,7.63 -14.92,15.95zm-217.11 27.27l-13.38 0 0 -14.4c9.55,0 20.06,-2.05 20.06,7.2 0,2.06 -0.67,3.78 -1.74,4.94 -0.91,0.99 -3.29,2.26 -4.94,2.26zm-45.28 -29.32l0 76.14c0,8.44 11.42,18.91 23.84,12.01 4.39,-2.44 7.38,-6.71 8,-12.59 0.59,-5.65 0.06,-14.51 0.06,-20.51 1.33,0.97 3.68,5.08 5,6.83l15.21 21.83c11.64,13.86 28.67,3.42 28.67,-7.06 0,-10.45 -3.37,-11.78 -10.59,-21.82l-4.34 -5.96c5.85,-3.09 8.4,-4.75 12.43,-10.2 12.6,-17.02 5.41,-53.08 -35.58,-53.08l-25.72 0c-6.11,0 -9.95,2.03 -13.31,5.73 -1.98,2.17 -3.67,5.36 -3.67,8.68z"/>
  <path class="fil0" d="M393.58 62.25c0.35,0.41 0.26,0.23 0.63,0.91l7.09 20.19 -14.92 0c1.28,-5.5 5.9,-15.5 7.2,-21.1zm24.07 -47.04c3.62,0 6.56,2.94 6.56,6.57 0,3.62 -2.94,6.56 -6.56,6.56 -3.63,0 -6.57,-2.94 -6.57,-6.56 0,-3.63 2.94,-6.57 6.57,-6.57zm-47.72 0c3.62,0 6.56,2.94 6.56,6.57 0,3.62 -2.94,6.56 -6.56,6.56 -3.63,0 -6.57,-2.94 -6.57,-6.56 0,-3.63 2.94,-6.57 6.57,-6.57zm-82.33 74.83c-4.44,0 -7.48,1.73 -10.09,3.79 -4.49,3.54 -4.83,8.41 -4.83,13.18 0,17.88 42.87,27.22 60.59,9.66 6.71,-6.65 11.44,-14.71 11.44,-25.09l0 -56.6c0,-18.06 -29.02,-21.11 -31.78,-0.39 -0.77,5.77 -0.12,36.16 -0.12,46.18 0,5.08 0.74,10.9 -1.9,13.54 -2.94,2.96 -7.57,2.1 -11.65,0.28 -4.15,-1.84 -6.44,-4.67 -11.66,-4.55zm231.52 -54.54l0 73.57c0,11.58 9.48,15.95 20.58,15.95l31.38 0c5.61,0 9.83,-0.75 13.18,-3.29 11.32,-8.57 5.32,-27.06 -8.55,-27.06l-24.69 0 0 -59.17c0,-8.44 -7.49,-15.43 -15.95,-15.43 -8.45,0 -15.95,7.04 -15.95,15.43zm-73.57 1.54l0 71.52c0,5.08 2.92,10.29 5.93,12.59 4.09,3.12 7.75,3.87 14.65,3.87l30.86 0c5.82,0 10.84,-0.64 14.03,-3.46 12.68,-11.22 3.01,-26.89 -8.88,-26.89l-24.7 0 0 -59.69c0,-18.97 -31.89,-21.06 -31.89,2.06zm-215.06 -2.57l0 76.14c0,6.63 7.26,13.9 13.89,13.9 5.61,0 9.89,-0.54 13.76,-4.77 2.29,-2.51 4.25,-6.98 4.25,-11.7l0 -20.58 22.12 0c18.76,0 17.26,-27.27 1.55,-27.27l-23.67 0 0 -9.77c7.96,0 26.98,1.03 32.59,-1.37 1.29,-0.55 3.68,-2.24 4.58,-3.13 8.92,-8.9 3.69,-25.85 -11.96,-25.85l-40.13 0c-4.96,0 -8.83,1.39 -11.46,3.97 -2.49,2.42 -5.52,5.77 -5.52,10.43zm114.22 73.57c0,9.18 6.52,16.47 13.89,16.47 5.08,0 10.07,-0.08 13.91,-5.13 2.22,-2.92 3.64,-6.66 4.61,-10.82l33.44 0c1.76,7.54 6.41,15.95 14.92,15.95 5.67,0 8.88,0.05 13.34,-4.67 7.65,-8.12 3.16,-16.84 -0.04,-24.59l-15.28 -36.16c-3.24,-8.06 -6.77,-15.7 -10.15,-23.81 -3.57,-8.58 -8.67,-15.21 -19.25,-15.21 -10.33,0 -15.59,6.37 -19.19,14.77l-20.72 48.21c-2.2,5.24 -9.48,20.26 -9.48,24.99z"/>
 </g>
</svg>
