<?xml version="1.0" encoding="UTF-8"?>
<!DOCTYPE svg PUBLIC "-//W3C//DTD SVG 1.1//EN" "http://www.w3.org/Graphics/SVG/1.1/DTD/svg11.dtd">
<!-- Creator: CorelDRAW 2019 (64-Bit) -->
<svg xmlns="http://www.w3.org/2000/svg" xml:space="preserve" width="695px" height="240px" version="1.1" style="shape-rendering:geometricPrecision; text-rendering:geometricPrecision; image-rendering:optimizeQuality; fill-rule:evenodd; clip-rule:evenodd"
viewBox="0 0 695 239.91"
 xmlns:xlink="http://www.w3.org/1999/xlink"
 xmlns:xodm="http://www.corel.com/coreldraw/odm/2003">
 <defs>
  <style type="text/css">
   <![CDATA[
    .fil0 {fill:#E62129}
    .fil1 {fill:black}
    .fil2 {fill:black;fill-rule:nonzero}
   ]]>
  </style>
 </defs>
 <g id="Layer_x0020_1">
  <metadata id="CorelCorpID_0Corel-Layer"/>
  <path class="fil0" d="M1.02 188.24c36.26,-16.84 73.91,-49.18 112.01,-92.86 41.91,-48.02 91.17,-72 147.81,-71.83 -10.29,19.13 -15.57,42.64 -15.42,70.91 -40.3,-2.1 -82.08,34.28 -124.21,93.79l-120.19 -0.01z"/>
  <path class="fil0" d="M141.59 188.37l150.8 -0.23c-26.28,-21.76 -41.67,-48.2 -45.23,-79.72 -36.51,-3.15 -71.52,27.58 -105.57,79.95z"/>
  <path class="fil1" d="M334.33 23.56l115.46 0.57c10.04,0.35 19.04,10.79 18.99,18.99l-2.88 39.35c-2.09,10.07 -10.93,16.11 -26.82,17.95l73.89 87.21 -14.04 0.12c-5.99,-0.37 -11.01,-4.04 -15.15,-8.06l-69.56 -79.61 -6.07 0.03 75.61 87.65 -16.23 0.02c-5.72,-0.14 -12.24,-2.83 -15.95,-6.74l-70.46 -80.92 -36.75 -0.03 -3.61 46.83 -35.74 0.03 4.37 -58.02c1.42,-10.23 8.2,-17.52 18.02,-17.73l96.46 -0.11c14.04,0.12 16.66,-19.39 -0.57,-19.33l-110.74 0.06c0.04,-17.59 6.49,-28.46 21.77,-28.26z"/>
  <path class="fil1" d="M508.25 39.19l91.28 -0.06c10.88,0.21 23.87,14.23 24.06,20.99l-1.57 31.52c-1.01,9.01 -7.57,14 -14.53,14.33l-103.49 -0.6 -0.07 8.01c0.2,5.11 3.47,9.14 7.65,9.06l147.92 -0.04 -2.28 25.22 -156.21 0c-11.87,-0.49 -28.26,-16.76 -28.44,-30.39l2.93 -49.01c0.52,-11.55 16.81,-29.15 32.75,-29.03zm6.54 25.64l70.23 0c4.53,0 8.22,3.68 8.22,8.18l0 8.18 -86.68 0 0 -8.18c0,-4.5 3.7,-8.18 8.23,-8.18z"/>
  <polygon class="fil1" points="634.48,38.97 665.07,38.97 660.06,106.22 629.47,106.22 "/>
  <path class="fil1" d="M651.94 31.27c-8.59,0 -15.54,-6.91 -15.54,-15.44 0,-8.53 6.95,-15.44 15.54,-15.44 8.58,0 15.54,6.91 15.54,15.44 0,8.53 -6.96,15.44 -15.54,15.44z"/>
  <path class="fil2" d="M681.8 13.83l0 -10.53 4.67 0c0.94,0 1.65,0.09 2.14,0.28 0.49,0.19 0.88,0.53 1.17,1 0.29,0.48 0.44,1.01 0.44,1.59 0,0.75 -0.24,1.38 -0.73,1.89 -0.48,0.51 -1.23,0.84 -2.24,0.98 0.37,0.17 0.65,0.35 0.84,0.52 0.41,0.37 0.8,0.84 1.16,1.4l1.82 2.87 -1.74 0 -1.4 -2.19c-0.4,-0.63 -0.74,-1.12 -1,-1.45 -0.26,-0.34 -0.5,-0.57 -0.71,-0.71 -0.2,-0.13 -0.42,-0.22 -0.63,-0.28 -0.16,-0.03 -0.42,-0.05 -0.78,-0.05l-1.61 0 0 4.68 -1.4 0zm1.4 -5.88l2.99 0c0.64,0 1.13,-0.07 1.49,-0.2 0.36,-0.13 0.63,-0.34 0.82,-0.63 0.18,-0.29 0.28,-0.61 0.28,-0.95 0,-0.49 -0.18,-0.91 -0.54,-1.23 -0.37,-0.32 -0.93,-0.48 -1.71,-0.48l-3.33 0 0 3.49z"/>
  <path class="fil1" d="M686.43 17.13c-4.73,0 -8.56,-3.83 -8.56,-8.56 0,-4.73 3.83,-8.57 8.56,-8.57 4.74,0 8.57,3.84 8.57,8.57 0,4.73 -3.83,8.56 -8.57,8.56zm0 -1.15c-4.09,0 -7.41,-3.32 -7.41,-7.41 0,-4.1 3.32,-7.42 7.41,-7.42 4.1,0 7.42,3.32 7.42,7.42 0,4.09 -3.32,7.41 -7.42,7.41z"/>
  <path class="fil1" d="M4.76 200.63l31.74 0c2.62,0 4.76,2.14 4.76,4.76l0 29.75c0,2.62 -2.14,4.77 -4.76,4.77l-31.74 0c-2.62,0 -4.76,-2.15 -4.76,-4.77l0 -29.75c0,-2.62 2.14,-4.76 4.76,-4.76zm1.59 5.16l28.56 0c0.51,0 0.93,0.42 0.93,0.93l0 27.1c0,0.51 -0.42,0.93 -0.93,0.93l-28.56 0c-0.51,0 -0.93,-0.42 -0.93,-0.93l0 -27.1c0,-0.51 0.42,-0.93 0.93,-0.93z"/>
  <path class="fil1" d="M64.27 200.63l5.95 0 0 12.3 0 2.13 0 18.46c0,0.54 0.45,0.99 0.99,0.99l22.22 0c0.54,0 0.99,-0.45 0.99,-0.99l0 -18.46 0 -2.08 0 -12.35 5.95 0 0 33.58c0,3.14 -2.55,5.7 -5.69,5.7l-24.72 0c-3.13,0 -5.69,-2.56 -5.69,-5.7l0 -33.58z"/>
  <polygon class="fil1" points="124.97,200.63 158.3,200.63 158.3,205.74 143.92,205.74 143.92,239.91 139.4,239.91 139.4,205.74 125.02,205.74 "/>
  <path class="fil1" d="M462.35 200.63l30.79 0 0 6.03 -19.21 0 -9.75 0c-0.99,0 -1.8,0.81 -1.8,1.8l0 23.61c0,1 0.81,1.81 1.8,1.81l24.28 0 0 -12.2 -14.53 0 0 -5.13 19.21 0 0 23.36 -30.79 0c-3.04,0 -5.51,-2.56 -5.51,-5.7l0 -27.89c0,-3.13 2.47,-5.69 5.51,-5.69z"/>
  <path class="fil1" d="M520.49 200.63l28.79 0 0 5.96 -29.11 0 0 10.75 29.11 0 0 5.85 -29.11 0 0 10.76 29.11 0 0 5.96 -28.79 0c-3.04,0 -5.53,-2.56 -5.53,-5.7l0 -27.89c0,-3.13 2.49,-5.69 5.53,-5.69z"/>
  <path class="fil1" d="M579.39 200.63l24.47 0c2.99,0 5.42,2.56 5.42,5.69l0 33.59 -6.45 0 0 -13.94 -22.41 0 0 13.94 -6.45 0 0 -33.59c0,-3.13 2.44,-5.69 5.42,-5.69zm2.84 5.21l18.8 0c0.99,0 1.8,0.81 1.8,1.8l0 13.97 -22.41 0 0 -13.97c0,-0.99 0.81,-1.8 1.81,-1.8z"/>
  <path class="fil1" d="M182.1 200.63l30.81 0c3.13,0 5.69,2.56 5.69,5.69l0 27.89c0,3.14 -2.56,5.7 -5.69,5.7l-30.81 0 0 -39.28zm5.29 5.26l24.36 0c1,0 1.81,0.81 1.81,1.8l0 25.15c0,1 -0.81,1.81 -1.81,1.81l-24.36 0 0 -28.76z"/>
  <path class="fil1" d="M393.46 223.94l12.91 15.97 -6.28 0 -12.91 -15.97 -10.47 0 0 15.97 -5.57 0 0 -15.97 0 -11.01 0 -12.3 29.61 0c3.47,0 6.3,2.83 6.3,6.3l0 10.7c0,3.47 -2.83,6.31 -6.3,6.31l-7.29 0zm-16.75 -4.44l24.12 0c1,0 1.81,-0.81 1.81,-1.8l0 -10.01c0,-0.99 -0.81,-1.8 -1.81,-1.8l-24.12 0 0 13.61z"/>
  <path class="fil1" d="M246.2 200.63l31.74 0c2.62,0 4.76,2.14 4.76,4.76l0 29.75c0,2.62 -2.14,4.77 -4.76,4.77l-31.74 0c-2.62,0 -4.76,-2.15 -4.76,-4.77l0 -29.75c0,-2.62 2.14,-4.76 4.76,-4.76zm1.59 5.16l28.56 0c0.51,0 0.93,0.42 0.93,0.93l0 27.1c0,0.51 -0.42,0.93 -0.93,0.93l-28.56 0c-0.51,0 -0.93,-0.42 -0.93,-0.93l0 -27.1c0,-0.51 0.42,-0.93 0.93,-0.93z"/>
  <path class="fil1" d="M310.87 200.63l31.74 0c2.61,0 4.76,2.14 4.76,4.76l0 29.75c0,2.62 -2.15,4.77 -4.76,4.77l-31.74 0c-2.62,0 -4.76,-2.15 -4.76,-4.77l0 -29.75c0,-2.62 2.14,-4.76 4.76,-4.76zm1.59 5.16l28.55 0c0.52,0 0.94,0.42 0.94,0.93l0 27.1c0,0.51 -0.42,0.93 -0.94,0.93l-28.55 0c-0.52,0 -0.93,-0.42 -0.93,-0.93l0 -27.1c0,-0.51 0.41,-0.93 0.93,-0.93z"/>
  <path class="fil1" d="M654.44 223.94l12.91 15.97 -6.28 0 -12.91 -15.97 -10.48 0 0 15.97 -5.56 0 0 -15.97 0 -11.01 0 -12.3 29.6 0c3.47,0 6.31,2.83 6.31,6.3l0 10.7c0,3.47 -2.84,6.31 -6.31,6.31l-7.28 0zm-16.76 -4.44l24.13 0c0.99,0 1.81,-0.81 1.81,-1.8l0 -10.01c0,-0.99 -0.82,-1.8 -1.81,-1.8l-24.13 0 0 13.61z"/>
 </g>
</svg>
