<?xml version="1.0" encoding="UTF-8"?>
<!DOCTYPE svg PUBLIC "-//W3C//DTD SVG 1.1//EN" "http://www.w3.org/Graphics/SVG/1.1/DTD/svg11.dtd">
<!-- Creator: CorelDRAW 2019 (64-Bit) -->
<svg xmlns="http://www.w3.org/2000/svg" xml:space="preserve" width="342px" height="240px" version="1.1" style="shape-rendering:geometricPrecision; text-rendering:geometricPrecision; image-rendering:optimizeQuality; fill-rule:evenodd; clip-rule:evenodd"
viewBox="0 0 342 240.35"
 xmlns:xlink="http://www.w3.org/1999/xlink"
 xmlns:xodm="http://www.corel.com/coreldraw/odm/2003">
 <defs>
  <style type="text/css">
   <![CDATA[
    .fil1 {fill:#1C252C}
    .fil0 {fill:#303E48}
   ]]>
  </style>
 </defs>
 <g id="Layer_x0020_1">
  <metadata id="CorelCorpID_0Corel-Layer"/>
  <polygon class="fil0" points="115.56,149.6 78.85,132.34 163.75,0 263.15,149.1 179.81,95.38 "/>
  <polygon class="fil1" points="179.81,95.38 115.56,149.6 109.28,121.99 167.14,52.46 "/>
  <polygon class="fil1" points="263.15,149.1 163.75,0 167.14,52.46 "/>
  <path class="fil0" d="M190.94 170.44l10.12 0 55.6 0 0 9.41 -55.6 0 0 7.4 54.22 0 0 9.42 -54.22 0 0 7.53 55.6 0 0 9.41 -55.6 0 -10.12 0c-3.13,0 -5.69,-2.56 -5.69,-5.69l0 -31.79c0,-3.13 2.56,-5.69 5.69,-5.69z"/>
  <polygon class="fil0" points="79.71,170.44 95.52,170.44 95.52,213.61 79.71,213.61 "/>
  <path class="fil0" d="M110.25 170.44l10.12 0 54.33 0 0 9.41 -54.33 0 0 24.35 39.85 0 0 -7.53 -20.08 0 0 -9.42 36.14 0 0 9.42 0 7.53 0 3.72c0,3.13 -2.56,5.69 -5.69,5.69l-50.22 0 -10.12 0 -1.27 -0.14c-2.53,-0.58 -4.42,-2.86 -4.42,-5.55l0 -31.79c0,-2.7 1.89,-4.97 4.42,-5.55l1.27 -0.14z"/>
  <path class="fil0" d="M264.25 170.44l56.71 0 9.01 0 0.67 0c3,0 5.44,2.45 5.44,5.44l0 15.47c0,2.99 -2.44,5.44 -5.44,5.44l-0.67 0 -1.98 0 14.01 16.82 -20.4 0 -14.01 -16.82 -27.52 0 0 16.82 -15.82 0 0 -16.82 0 -4.77 0 -4.64 56.71 0 0 -7.53 -56.71 0 0 -9.41z"/>
  <path class="fil0" d="M5.69 170.44l10.12 0 55.6 0 0 9.41 -55.6 0 0 7.4 54.22 0 0 9.42 -54.22 0 0 7.53 55.6 0 0 9.41 -55.6 0 -10.12 0c-3.13,0 -5.69,-2.56 -5.69,-5.69l0 -31.79c0,-3.13 2.56,-5.69 5.69,-5.69z"/>
  <path class="fil0" d="M30.26 232.51l3.21 7.81 -3.38 0 -2.96 -7.06 -4.17 0 0 7.06 -3.37 0 0 -7.06 0 -2.91 0 -5.33 0 -1.87 0 -0.9 9.48 0c4.81,0 5.3,8.42 1.19,10.26zm-7.3 -2.16l4.98 0c2.02,0 2.84,-5.33 0.47,-5.33l-5.45 0 0 5.33z"/>
  <path class="fil0" d="M69.76 233.79l-4.17 0 0.03 6.52 -3.38 0c-0.02,-6.02 0.01,-12.03 0.01,-18.06l9.78 0c4.37,0 7.13,11.47 -2.27,11.54zm-4.17 -2.73l5.26 -0.06c1.75,0 2.01,-1.31 2.03,-2.9 0,-0.04 0,-0.08 0,-0.11 0.01,-1.45 -0.31,-2.86 -1.6,-3.01 -0.06,-0.01 -0.13,-0.02 -0.2,-0.02l-5.49 0.06 0 6.04z"/>
  <polygon class="fil0" points="85.56,222.26 85.56,240.32 82.18,240.32 82.18,222.26 "/>
  <path class="fil0" d="M95.66 227.13l0 8.13c-0.04,1.21 0.61,1.55 1.82,1.55l5.08 0 0 3.51 -6.75 0c-2.29,0 -3.52,-2.28 -3.52,-4.34l0 -9.62c0,-2.06 1.14,-4.1 3.52,-4.1l6.75 0 0 3.11 -5.06 0c-1.37,-0.05 -1.94,0.61 -1.84,1.76z"/>
  <path class="fil0" d="M131.42 222.26l0 13.41c-0.01,1.02 0.63,1.17 1.84,1.17l3.6 0 0 3.48 -5.72 0c-1.66,0 -3.09,-1.85 -3.09,-3.48l0 -14.58 3.37 0z"/>
  <path class="fil0" d="M44.42 222.25l6.89 0c2.5,0 4.51,1.92 4.51,4.43l0 8.98c0,2.51 -2.05,4.66 -4.55,4.66l-6.89 0c-2.5,0 -4.55,-2.15 -4.55,-4.66l0 -8.98c0,-2.51 2.08,-4.43 4.59,-4.43zm1.35 2.4l4.12 0c1.5,0 2.72,1.22 2.72,2.72l0 7.6c0,1.5 -1.22,2.72 -2.72,2.72l-4.12 0c-1.5,0 -2.73,-1.22 -2.73,-2.72l0 -7.6c0,-1.5 1.23,-2.72 2.73,-2.72z"/>
  <path class="fil0" d="M114.45 222.26l1.79 0 0.07 0c0.82,0.04 1.68,0.78 1.95,1.59l5.47 16.47 -3.37 0 -1.69 -5 -6.65 0 -1.53 5 -3.38 0 5.32 -16.47c0.27,-0.81 1.13,-1.55 1.95,-1.59l0.07 0zm3.26 10.16l-2.05 -6.21c-0.21,-0.68 -0.42,-0.65 -0.63,0.01l-2.05 6.2 4.73 0z"/>
  <path class="fil0" d="M288.56 222.26l3.09 0 0 13.78c0,1.5 0.38,1.7 1.34,1.7l4.15 0c1.24,0 1.34,-0.34 1.34,-1.84l0 -13.64 3.15 0 0 14.71c0,1.75 -1.86,3.2 -3.57,3.36l-0.32 0.02 -5.31 0 -0.38 -0.02c-1.68,-0.19 -3.49,-1.63 -3.49,-3.36l0 -14.71z"/>
  <path class="fil0" d="M332.86 226.84l0 2.97 8.64 0 0 2.82 -8.64 0 0 3.52c-0.05,1.22 0.6,1.55 1.81,1.55l7.33 0 0 2.62 -8.99 0c-2.3,0 -3.53,-2.14 -3.53,-4.21l0 -9.61c0,-2.06 1.14,-4.24 3.53,-4.24l8.99 0 0 2.82 -7.31 0c-1.37,-0.04 -1.94,0.61 -1.83,1.76z"/>
  <path class="fil0" d="M251.12 225.31l0 1.11 0 13.9 -3.09 0 0 -13.9 0 -1.11c0,-1.68 1.07,-3.05 2.75,-3.05l0.2 0 0.14 0 0.52 0c0.4,0 0.79,0.09 1.14,0.25l0.06 0.03c0.73,0.36 1.28,1.04 1.46,1.86l0.04 0.16 0.01 0.01 0.59 2.34 3.08 10.44c0.36,0.54 1.03,0.2 1.03,-0.08l0 -0.79 0 -13.9 3.04 0 0 13.9 0 0.79c0,1.67 -1.23,3.05 -2.92,3.05l-0.2 0 -0.14 0 -0.51 0c-1.13,0 -2.11,-0.7 -2.52,-1.69l-0.02 -0.02 -0.08 -0.25 0 -0.02 -3.72 -13.06c-0.3,-0.59 -0.86,-0.25 -0.86,0.03z"/>
  <path class="fil0" d="M184.4 222.26l2.96 0 7.15 0c2.39,0 3.53,2.54 3.53,4.6l0 9.25c0,2.07 -1.23,4.21 -3.53,4.21l-7.15 0 -2.96 0 0 -18.06zm2.96 3.24l0 11.44 5.81 0c1.21,0 1.86,-0.34 1.82,-1.55l0 -8.13c0.1,-1.15 -0.47,-1.8 -1.84,-1.76l-5.79 0z"/>
  <polygon class="fil0" points="268.73,222.26 273.68,222.26 277.06,222.26 282.02,222.26 282.02,225.63 277.06,225.63 277.06,240.35 273.68,240.35 273.68,225.63 268.73,225.63 "/>
  <path class="fil0" d="M319.54 232.64l3.11 7.71 -3.37 0 -2.87 -6.96 -4.17 0 0 6.96 -3.38 0 0 -6.96 0 -2.9 0 -5.33 0 -2 0 -0.9 9.49 0c4.81,0 5.29,8.54 1.19,10.38zm-7.3 -2.15l4.97 0c2.02,0 2.85,-5.33 0.47,-5.33l-5.44 0 0 5.33z"/>
  <path class="fil0" d="M213.19 237.09c0.21,0.68 0.42,0.65 0.63,-0.01l4.52 -14.82 3.37 0 -5.4 16.33c-0.27,0.81 -1.13,1.48 -1.94,1.52l-0.08 0 -1.78 0 -0.08 0c-0.81,-0.04 -1.67,-0.71 -1.94,-1.52l-5.4 -16.33 3.37 0 4.73 14.83z"/>
  <path class="fil0" d="M168.18 222.26l1.78 0 0.08 0c0.81,0.04 1.67,0.71 1.94,1.51l5.49 16.54 -3.37 0 -1.7 -5.06 -6.66 0 -1.52 5.06 -3.37 0 5.31 -16.54c0.26,-0.81 1.13,-1.47 1.94,-1.51l0.08 0zm3.26 10.09l-2.05 -6.21c-0.22,-0.68 -0.43,-0.65 -0.64,0.01l-2.05 6.2 4.74 0z"/>
  <polygon class="fil0" points="0,222.25 4.95,222.25 8.33,222.25 13.28,222.25 13.28,225.5 8.33,225.5 8.33,240.32 4.95,240.32 4.95,225.5 0,225.5 "/>
  <path class="fil0" d="M231.98 226.84l0 2.97 8.65 0 0 2.82 -8.65 0 0 3.52c-0.04,1.22 0.61,1.55 1.82,1.55l7.33 0 0 2.62 -9 0c-2.29,0 -3.53,-2.14 -3.53,-4.21l0 -9.61c0,-2.06 1.15,-4.24 3.53,-4.24l8.99 0 0 2.82 -7.3 0c-1.37,-0.04 -1.95,0.61 -1.84,1.76z"/>
 </g>
</svg>
