<?xml version="1.0" encoding="UTF-8"?>
<!DOCTYPE svg PUBLIC "-//W3C//DTD SVG 1.1//EN" "http://www.w3.org/Graphics/SVG/1.1/DTD/svg11.dtd">
<!-- Creator: CorelDRAW 2019 (64-Bit) -->
<svg xmlns="http://www.w3.org/2000/svg" xml:space="preserve" width="1276px" height="240px" version="1.1" style="shape-rendering:geometricPrecision; text-rendering:geometricPrecision; image-rendering:optimizeQuality; fill-rule:evenodd; clip-rule:evenodd"
viewBox="0 0 1276 239.96"
 xmlns:xlink="http://www.w3.org/1999/xlink"
 xmlns:xodm="http://www.corel.com/coreldraw/odm/2003">
 <defs>
  <style type="text/css">
   <![CDATA[
    .fil0 {fill:#EA5B2A;fill-rule:nonzero}
   ]]>
  </style>
 </defs>
 <g id="Layer_x0020_1">
  <metadata id="CorelCorpID_0Corel-Layer"/>
  <polygon class="fil0" points="0,4.02 48.08,4.02 48.08,191.33 111,191.33 111,234.07 0,234.07 "/>
  <path class="fil0" d="M1275.85 163.52c-0.89,-3.06 -3.39,-3.53 -6.19,-3.9 -3.73,-0.5 -7.71,0.15 -7.71,0.15 -3.77,0.22 -6.35,0.02 -8.01,-0.24 -1.64,-0.26 -2.37,-0.56 -2.37,-0.56 -1.02,-0.34 -1.85,-0.79 -2.49,-1.3 -1.27,-1.05 -1.8,-2.44 -1.85,-3.99 -0.17,-5.91 6.87,-14.05 6.87,-14.05 6.58,-7.61 8.3,-11.12 10.15,-16.29 2.78,-7.88 8.13,-18.11 8.13,-18.11 2.38,-4.5 0.84,-7.6 0.84,-7.6 -0.42,-1 -1.43,-1.7 -2.68,-2.15 -0.74,-0.26 -1.56,-0.43 -2.35,-0.48 -2.43,-0.01 -4.8,0.25 -5.35,0.31l-0.11 0.01c-7.11,0.99 -11.6,-0.74 -11.6,-0.74 -1.16,-0.5 -2.13,-1.07 -2.91,-1.71 -2.28,-1.84 -3.15,-4.26 -3.45,-6.97l-0.04 -0.3 0 0.01c0.18,-16.9 3.76,-22.56 2.38,-34.6 -0.13,-1.13 -0.27,-2.19 -0.39,-3.22 -2.06,-15.26 -4.82,-18.62 -6.18,-22.59 -1.17,-3.46 -1.45,-5.37 -2.12,-9.9 -0.69,-4.7 -0.59,-4.65 -1.82,-8.71 -0.93,-4.38 -2.29,-6 -3.69,-6.44 -1.08,-0.36 -2.16,0 -3.05,0.33 -2.36,0.85 -6.56,4.99 -6.56,4.99 -0.57,0.53 -1.15,1.06 -1.74,1.6 -1.31,1.05 -2.42,2.03 -3.2,2.73 -2.23,1.87 -4.26,3.41 -5.74,4.5 -7.28,5.04 -11.84,6.36 -11.84,6.36 -18.09,5.28 -29.47,19.45 -30.83,21.21l-0.14 0.17c-3.84,4.28 -8.38,5.38 -11.97,5.41 -3.58,0.01 -6.22,-1.04 -6.22,-1.04 -4.99,-0.48 -12.11,-16.16 -12.11,-16.16 -0.66,-1.78 -1.65,-2.57 -2.7,-2.83 -2.22,-0.55 -4.69,1.32 -4.69,1.32 -2.99,2.69 -5.13,5.71 -8.2,8.74 -10.7,10.51 -11.91,18.9 -15.17,27.81 -0.2,0.6 -0.44,1.19 -0.67,1.79 -2.59,6.55 -2.82,7.05 -3.83,8.74 -1.46,2.46 -3.68,3.05 -5.33,3.1 -1.26,0.03 -2.21,-0.26 -2.21,-0.26 -0.74,-0.3 -1.48,-0.66 -2.24,-1.08 -5.2,-2.94 -10.4,-8.58 -14.95,-15.86 -2.16,-3.47 -4.1,-4.69 -5.79,-4.58 -5.02,0.34 -7.81,12.7 -7.81,12.7 -13.9,36.92 -8.39,47.93 -7.71,50.4 0.69,2.53 1.44,3.86 1.86,7.58 0.74,11.13 -6.1,12.95 -6.1,12.95 -1.42,0.49 -5.58,1.79 -5.58,1.79 -2.34,0.89 -3.36,2.11 -4.12,3.33 -1.21,2 -1.15,3.79 -0.42,5.76 1.03,2.79 3.13,5.31 4.73,7.17 1.59,1.86 4.14,4.47 7.19,7.93 3.88,4.82 7.89,10.59 11.14,15.73 0.9,1.73 1.78,3.31 2.66,4.84l0.5 0.86c4.91,9.04 7.67,13.12 12.92,17.43 0.92,0.76 1.93,1.53 3.04,2.34 1.94,1.39 5.72,3.57 7.26,4.81 1.44,1.14 8.88,6.47 -3.64,11.36 -17.93,6.25 -30.71,0.45 -38.55,-5.95 -6.28,-5.12 -9.36,-10.64 -9.36,-10.64 -0.64,-0.94 -1.37,-1.58 -2.08,-1.83 -1.17,-0.41 -2.32,0.2 -2.97,1.93 -0.37,1.14 -0.4,2.9 -0.4,4.97l0 22.7c18.78,5.09 34.4,4.51 44.42,2.98 2.11,-0.4 4.21,-0.85 6.34,-1.33 48.13,-10.9 88.7,-72.44 106.72,-113.52 0.62,-1.42 1.14,-2.56 1.56,-3.55 1.28,-2.97 1.87,-4.58 3.29,-8.18 0.07,-0.16 1.35,-3.58 2.34,-5.89 0.21,-0.51 0.59,-0.85 0.96,-0.82 0.56,0.07 1.08,1 0.9,3.54l-0.08 0.91c-0.38,3.46 -2.29,11.24 -5.29,19.37 -0.33,0.83 -0.63,1.67 -0.94,2.52 -4.71,12.72 -10.83,28.23 -27.38,52.15 -13.98,20.18 -32.78,38.91 -48.88,47.57l0.83 0.3 0.59 0.24c5.21,1.76 10.22,3.19 15.04,4.33 33.72,7.95 57.42,1.73 57.42,1.73 3.3,-0.76 6.99,-1.01 10.3,-1.01 5.54,0.02 10.03,0.69 10.03,0.69l0.15 0c3.7,0.13 6.14,-0.16 8.34,-1.13 2.65,-1.18 3.34,-2.8 3.34,-4.15 0,-2.1 -1,-2.64 -2.38,-4.42 -1.27,-1.66 -2.78,-3.83 -2.9,-5.28 -0.36,-3.72 4.2,-4.72 4.2,-4.72 15.97,-6.11 22.95,-14.58 22.95,-14.58 7.39,-7.83 9.1,-12.24 12.01,-16.5 2.75,-3.98 12.2,-14.95 13.37,-16.29l0.12 -0.15c2.09,-2.74 2.65,-4.97 2.19,-6.59z"/>
  <path class="fil0" d="M1013.34 94.73l-0.86 0 0 -5.25 0.69 0c2.6,0 5.68,0.28 5.68,2.58 0,2.3 -2.87,2.67 -5.51,2.67zm7.96 -2.8c0,-1.37 -1.04,-2.78 -2.76,-3.45 -1.66,-0.68 -3.66,-0.68 -5.54,-0.68l-3.12 0 0 14.61 2.6 0 0 -6.2 1.04 0 6.2 6.2 3.16 0 -6.57 -6.35c3,-0.27 4.99,-2 4.99,-4.13zm-5.83 16.77c-3.54,0 -6.89,-1.38 -9.42,-3.95 -2.52,-2.47 -3.88,-5.81 -3.88,-9.36 0,-3.53 1.36,-6.88 3.88,-9.34 2.53,-2.56 5.88,-3.94 9.42,-3.94 3.52,0 6.84,1.38 9.38,3.94 2.49,2.46 3.87,5.81 3.87,9.34 0,7.33 -5.98,13.31 -13.25,13.31zm0 -28.07c-8.18,0 -14.79,6.62 -14.79,14.76 0,3.93 1.54,7.64 4.37,10.43 2.72,2.76 6.42,4.3 10.42,4.3 3.88,0 7.61,-1.54 10.41,-4.3 2.77,-2.79 4.31,-6.5 4.31,-10.43 0,-3.94 -1.54,-7.67 -4.31,-10.42 -2.8,-2.77 -6.53,-4.34 -10.41,-4.34z"/>
  <path class="fil0" d="M200.12 68.71c-11.58,-0.22 -31.48,2.29 -47.84,11.4 -14.39,8.32 -21.75,20.77 -23.53,38 1.07,0 40.18,0.09 40.88,0.09 3.51,-14.98 15.04,-18.35 28.78,-18.35 14.34,0 28.34,1.54 28.34,18.05 0,9.68 -3.14,14.69 -9.03,17.11 -4.92,2.02 -18.22,3.93 -30.52,5.31 -30.38,3.45 -66.93,8.37 -66.93,50.46 0,26.03 24.81,47.76 54.04,47.76 43.04,0 52.37,-24.39 52.37,-24.39l0.02 19.97 47.41 -0.01 -0.05 -112.68c0.22,-36.52 -22.27,-51.74 -73.94,-52.72zm17.92 131.69c-7.58,6.22 -15.66,8.27 -27.79,8.19 -16.42,-0.09 -24.86,-7.59 -24.86,-21.32 0,-19.7 23.62,-21.01 38.86,-24.06 15.08,-3.01 22.53,-4.13 22.53,-4.13 0,0 0,5.45 0,10.96 0,18.64 -0.05,23.24 -8.74,30.36z"/>
  <path class="fil0" d="M915.09 68.71c-11.58,-0.22 -31.49,2.29 -47.84,11.4 -14.37,8.32 -21.75,20.77 -23.54,38 1.08,0 40.2,0.09 40.87,0.09 3.53,-14.98 15.07,-18.35 28.79,-18.35 14.35,0 28.36,1.54 28.36,18.05 0,9.68 -3.15,14.69 -9.04,17.11 -4.95,2.02 -18.22,3.93 -30.49,5.31 -30.42,3.45 -66.98,8.37 -66.98,50.46 0,26.03 24.83,47.76 54.05,47.76 43.04,0 52.38,-24.39 52.38,-24.39l0 19.97 47.43 -0.01 -0.05 -112.68c0.22,-36.52 -22.26,-51.74 -73.94,-52.72zm17.91 131.69c-7.57,6.22 -15.65,8.27 -27.79,8.19 -16.4,-0.09 -24.86,-7.59 -24.86,-21.32 0,-19.7 23.64,-21.01 38.88,-24.06 15.08,-3.01 22.51,-4.13 22.51,-4.13 0,0 0,5.45 0,10.96 0,18.64 -0.04,23.24 -8.74,30.36z"/>
  <path class="fil0" d="M508.75 158.63c-0.04,34.16 -9.76,47.41 -34.43,47.39 -20.47,-0.02 -29.48,-12.63 -29.45,-40.91l0.03 -90.27 -47.24 0 -0.05 98.37c-0.04,43.79 20.47,65.1 62.9,65.14 18.65,0.03 38.68,-8.72 48.67,-21.66l1.96 -2.54 -0.03 19.97 45.34 -0.01 0 -159.27 -47.68 0.02 -0.02 83.77z"/>
  <path class="fil0" d="M573.23 74.86l45.32 0 0 21.57 0.61 0c11.42,-16.34 29.83,-25.91 50.49,-25.91 20.03,0 37.91,7.42 46.54,26.52 9.27,-13.85 25.91,-26.52 48.1,-26.52 37.57,0 60.06,15.74 60.06,57.06l0 106.66 -45.58 0 0 -90.33c0,-21.27 -1.85,-38.85 -26.81,-38.85 -24.66,0 -29.29,20.35 -29.29,40.4l0 88.78 -45.56 0 0 -89.4c0,-18.51 1.26,-39.78 -26.5,-39.78 -8.63,0 -29.6,5.55 -29.6,36.7l0 92.48 -47.78 0 0 -159.38z"/>
  <path class="fil0" d="M351.58 6.32c-0.98,0.21 -1.43,0.31 -1.68,0.34l0.02 0 -3.41 0.78c-29.35,7.35 -44.41,27.29 -44.61,59.31l0.03 7.91 -18.75 0.02 0 39.47 18.6 0 -0.1 120.04 48.15 0 0 -120.04 35.36 0 0 -39.49 -35.36 0 0 -7.02c0,-14.9 0.28,-29.15 27.9,-29.15 7.23,0 14.16,1.31 14.16,1.31l0.01 -33.48c0,0 -9.37,-2.03 -21.15,-1.88 -6.32,0.07 -13.45,0.8 -19.17,1.88z"/>
 </g>
</svg>
