<?xml version="1.0" encoding="UTF-8"?>
<!DOCTYPE svg PUBLIC "-//W3C//DTD SVG 1.1//EN" "http://www.w3.org/Graphics/SVG/1.1/DTD/svg11.dtd">
<!-- Creator: CorelDRAW 2019 (64-Bit) -->
<svg xmlns="http://www.w3.org/2000/svg" xml:space="preserve" width="346px" height="240px" version="1.1" style="shape-rendering:geometricPrecision; text-rendering:geometricPrecision; image-rendering:optimizeQuality; fill-rule:evenodd; clip-rule:evenodd"
viewBox="0 0 346 239.7"
 xmlns:xlink="http://www.w3.org/1999/xlink"
 xmlns:xodm="http://www.corel.com/coreldraw/odm/2003">
 <defs>
  <style type="text/css">
   <![CDATA[
    .fil0 {fill:#332C2B}
    .fil1 {fill:#332C2B;fill-rule:nonzero}
   ]]>
  </style>
 </defs>
 <g id="Layer_x0020_1">
  <metadata id="CorelCorpID_0Corel-Layer"/>
  <path class="fil0" d="M4.57 115.59c-3.73,18.55 -8.08,69.85 0,80.98 8.69,11.13 62.12,9.89 55.91,0.62 -37.9,-56.25 -41.62,-99.52 -48.46,-95.2 -6.21,4.33 -7.45,13.6 -7.45,13.6z"/>
  <path class="fil0" d="M177.26 187.3c-11.18,14.83 9.32,19.16 31.69,18.54 32.92,-1.23 37.27,-14.22 37.89,-22.25 1.24,-15.45 -1.24,-108.18 -13.67,-108.79 -17.39,-1.24 -27.95,74.17 -55.91,112.5z"/>
  <path class="fil0" d="M101.48 89.63c-8.7,-7.42 -37.9,-38.94 -37.9,-38.94 -7.45,-5.57 -58.39,0 -60.88,2.47 0,0 73.31,128.57 108.09,129.19 48.46,1.24 21.75,-46.36 133.56,-163.19 17.4,-18.54 4.97,-19.78 -2.48,-17.92 -6.21,1.85 -25.47,5.56 -48.45,9.89 -5.6,1.23 -30.44,30.29 -86.35,78.5 0,0 -2.49,2.47 -5.59,0z"/>
  <polygon class="fil0" points="345.61,193.48 345.61,206.46 304.61,206.46 304.61,194.71 318.28,182.97 304.61,171.84 304.61,159.48 345.61,159.48 345.61,173.08 323.87,173.08 335.05,182.97 323.87,193.48 "/>
  <polygon class="fil0" points="304.62,150.24 345.62,150.17 345.6,135.96 304.6,136.03 "/>
  <polygon class="fil0" points="345.61,100.76 345.61,126.72 304.61,126.72 304.61,112.5 335.67,112.5 335.67,100.76 "/>
  <polygon class="fil0" points="345.61,70.47 345.61,96.43 304.61,96.43 304.61,82.21 335.67,82.21 335.67,70.47 "/>
  <polygon class="fil0" points="345.61,37.71 345.61,66.14 304.61,66.14 304.61,38.94 313.93,38.94 313.93,52.54 320.76,52.54 320.76,40.8 329.46,40.8 329.46,52.54 336.29,52.54 336.29,37.71 "/>
  <polygon class="fil0" points="345.61,10.51 345.61,24.73 313.93,24.73 313.93,34.62 304.61,34.62 304.61,1.24 313.93,1.24 313.93,10.51 "/>
  <polygon class="fil0" points="279.14,0 287.84,0 287.84,206.46 279.14,206.46 "/>
  <polygon class="fil1" points="332.32,239.2 332.32,221.11 345.55,221.11 345.55,224.26 336.02,224.26 336.02,228.11 344.74,228.11 344.74,231.2 336.02,231.2 336.02,235.85 346,235.85 346,239.2 "/>
  <path class="fil1" d="M328.19 232.99c-0.13,2.05 -0.88,3.68 -2.24,4.9 -1.36,1.21 -3.13,1.81 -5.32,1.81 -2.52,0 -4.48,-0.83 -5.88,-2.51 -1.4,-1.67 -2.1,-4.01 -2.1,-7.02 0,-3.08 0.72,-5.44 2.14,-7.08 1.43,-1.64 3.48,-2.45 6.15,-2.45 2.17,0 3.89,0.56 5.15,1.69 1.26,1.12 1.95,2.71 2.08,4.77l-3.46 0c-0.15,-1.02 -0.54,-1.8 -1.18,-2.34 -0.64,-0.54 -1.5,-0.8 -2.59,-0.8 -1.54,0 -2.71,0.52 -3.51,1.58 -0.8,1.06 -1.2,2.6 -1.2,4.63 0,1.96 0.4,3.48 1.2,4.55 0.79,1.07 1.93,1.61 3.4,1.61 1.06,0 1.93,-0.29 2.61,-0.86 0.68,-0.58 1.12,-1.41 1.32,-2.48l3.43 0z"/>
  <polygon class="fil1" points="295.03,239.2 295.03,221.11 298.87,221.11 306.13,233.54 306.13,221.11 309.76,221.11 309.76,239.2 305.96,239.2 298.65,226.77 298.65,239.2 "/>
  <polygon class="fil1" points="278.15,239.2 278.15,221.11 291.51,221.11 291.51,224.26 281.88,224.26 281.88,228.11 290.69,228.11 290.69,231.2 281.88,231.2 281.88,235.85 291.96,235.85 291.96,239.2 "/>
  <polygon class="fil1" points="270.62,239.2 270.62,221.11 274.41,221.11 274.41,239.2 "/>
  <path class="fil1" d="M252.52 239.2l0 -18.09 8.92 0c2.01,0 3.5,0.42 4.46,1.27 0.97,0.84 1.45,2.13 1.45,3.86 0,1.1 -0.23,2.03 -0.7,2.76 -0.47,0.74 -1.15,1.24 -2.04,1.51 0.8,0.28 1.37,0.7 1.7,1.28 0.34,0.57 0.53,1.46 0.58,2.67l0.08 2.14c0,0.02 0,0.04 0,0.08 0.03,1.08 0.26,1.73 0.72,1.96l0 0.56 -4.15 0c-0.13,-0.26 -0.23,-0.57 -0.3,-0.94 -0.07,-0.37 -0.12,-0.82 -0.13,-1.34l-0.05 -1.9c-0.05,-1.13 -0.26,-1.88 -0.65,-2.27 -0.39,-0.4 -1.08,-0.6 -2.09,-0.6l-4.02 0 0 7.05 -3.78 0zm3.78 -10.19l4.45 0c0.97,0 1.68,-0.19 2.14,-0.57 0.45,-0.39 0.68,-0.99 0.68,-1.82 0,-0.78 -0.22,-1.38 -0.66,-1.78 -0.45,-0.41 -1.1,-0.61 -1.98,-0.61l-4.63 0 0 4.78z"/>
  <polygon class="fil1" points="235.77,239.2 235.77,221.11 249.13,221.11 249.13,224.26 239.5,224.26 239.5,228.11 248.3,228.11 248.3,231.2 239.5,231.2 239.5,235.85 249.58,235.85 249.58,239.2 "/>
  <path class="fil1" d="M222.62 232.76l0 6.44 -3.79 0 0 -18.09 8.19 0c1.93,0 3.39,0.5 4.39,1.48 0.99,0.99 1.49,2.43 1.49,4.34 0,1.86 -0.48,3.3 -1.46,4.31 -0.97,1.01 -2.36,1.52 -4.17,1.52l-4.65 0zm0.03 -3.27l3.66 0c0.99,0 1.71,-0.21 2.16,-0.62 0.45,-0.42 0.67,-1.08 0.67,-2 0,-0.86 -0.22,-1.51 -0.66,-1.95 -0.44,-0.44 -1.1,-0.66 -1.97,-0.66l-3.86 0 0 5.23z"/>
  <polygon class="fil1" points="200.18,239.2 205.96,229.97 200.18,221.11 204.55,221.11 208.31,227.43 212.05,221.11 216.45,221.11 210.66,229.94 216.45,239.2 212.07,239.2 208.31,232.93 204.55,239.2 "/>
  <polygon class="fil1" points="184.86,239.2 184.86,221.11 198.23,221.11 198.23,224.26 188.6,224.26 188.6,228.11 197.4,228.11 197.4,231.2 188.6,231.2 188.6,235.85 198.68,235.85 198.68,239.2 "/>
  <polygon class="fil1" points="169.37,239.2 165.61,239.2 165.61,232.46 158.97,221.11 163.57,221.11 167.49,228.91 171.1,221.11 175.4,221.11 169.37,232.46 "/>
  <path class="fil1" d="M142.64 239.2l0 -18.09 8.63 0c1.87,0 3.29,0.39 4.28,1.18 0.98,0.78 1.47,1.91 1.47,3.4 0,0.92 -0.19,1.68 -0.55,2.29 -0.36,0.62 -0.91,1.09 -1.63,1.42 0.94,0.38 1.65,0.93 2.11,1.64 0.47,0.7 0.7,1.58 0.7,2.64 0,1.76 -0.58,3.12 -1.74,4.08 -1.16,0.96 -2.8,1.44 -4.93,1.44l-8.34 0zm3.61 -11.09l4.3 0c0.92,0 1.6,-0.16 2.03,-0.48 0.43,-0.31 0.65,-0.81 0.65,-1.49 0,-0.66 -0.21,-1.14 -0.63,-1.43 -0.42,-0.3 -1.11,-0.45 -2.08,-0.45l-4.27 0 0 3.85zm0 7.82l4.46 0c1.05,0 1.82,-0.19 2.3,-0.57 0.48,-0.38 0.72,-0.97 0.72,-1.78 0,-0.84 -0.23,-1.45 -0.7,-1.82 -0.48,-0.38 -1.26,-0.56 -2.35,-0.56l-4.43 0 0 4.73z"/>
  <polygon class="fil1" points="116.79,239.2 116.79,221.11 120.65,221.11 127.93,233.54 127.93,221.11 131.57,221.11 131.57,239.2 127.76,239.2 120.43,226.77 120.43,239.2 "/>
  <polygon class="fil1" points="109.26,239.2 109.26,221.11 112.95,221.11 112.95,239.2 "/>
  <path class="fil1" d="M96.58 221.11l4.25 0 6.47 18.09 -3.88 0 -1.21 -3.73 -6.95 0 -1.18 3.73 -3.88 0 6.38 -18.09zm2.14 3.63l-2.49 7.69 4.98 0 -2.49 -7.69z"/>
  <polygon class="fil1" points="81.84,239.2 81.84,224.33 76.53,224.33 76.53,221.11 90.81,221.11 90.81,224.33 85.53,224.33 85.53,239.2 "/>
  <polygon class="fil1" points="59.66,239.2 59.66,221.11 63.51,221.11 70.8,233.54 70.8,221.11 74.43,221.11 74.43,239.2 70.63,239.2 63.3,226.77 63.3,239.2 "/>
  <path class="fil1" d="M41.69 221.06l3.72 0 0 11.35c0,1.39 0.27,2.42 0.82,3.06 0.56,0.64 1.43,0.96 2.64,0.96 1.21,0 2.1,-0.32 2.65,-0.96 0.56,-0.64 0.84,-1.66 0.84,-3.06l0 -11.35 3.69 0 0 11.75c0,2.22 -0.62,3.92 -1.85,5.11 -1.23,1.18 -3,1.78 -5.31,1.78 -2.33,0 -4.11,-0.59 -5.34,-1.77 -1.24,-1.19 -1.86,-2.9 -1.86,-5.12l0 -11.75z"/>
  <path class="fil1" d="M21.36 230.17c0,-2.92 0.79,-5.25 2.36,-6.96 1.58,-1.71 3.71,-2.57 6.39,-2.57 2.67,0 4.8,0.86 6.39,2.57 1.58,1.73 2.38,4.04 2.38,6.96 0,2.91 -0.8,5.23 -2.38,6.95 -1.59,1.72 -3.72,2.58 -6.39,2.58 -2.68,0 -4.81,-0.86 -6.39,-2.58 -1.57,-1.72 -2.36,-4.04 -2.36,-6.95zm3.76 0c0,1.99 0.44,3.53 1.31,4.63 0.88,1.11 2.11,1.66 3.68,1.66 1.59,0 2.82,-0.55 3.7,-1.66 0.89,-1.1 1.33,-2.64 1.33,-4.63 0,-1.99 -0.44,-3.53 -1.33,-4.64 -0.88,-1.1 -2.11,-1.65 -3.7,-1.65 -1.57,0 -2.8,0.55 -3.68,1.65 -0.87,1.09 -1.31,2.64 -1.31,4.64z"/>
  <polygon class="fil1" points="0.4,239.2 0.4,221.11 5.86,221.11 9.42,234.87 12.93,221.11 18.42,221.11 18.42,239.2 14.95,239.2 14.95,224.61 11.31,239.2 7.55,239.2 3.86,224.61 3.86,239.2 "/>
 </g>
</svg>
